<svg width="122" height="23" viewBox="0 0 122 23" fill="none" xmlns="http://www.w3.org/2000/svg">
<path d="M7.296 18.6C5.68 18.6 4.536 18.376 3.864 17.928C3.192 17.464 2.856 16.712 2.856 15.672C2.856 14.68 2.856 13.848 2.856 13.176C2.872 12.488 2.88 11.848 2.88 11.256C2.88 10.344 2.848 9.424 2.784 8.496C2.72 7.568 2.592 6.68 2.4 5.832C2.208 4.984 1.92 4.216 1.536 3.528C1.152 2.84 0.64 2.28 0 1.848C1.088 1.016 2.336 0.599999 3.744 0.599999C4.72 0.599999 5.496 0.879999 6.072 1.44C6.648 2 7.08 2.752 7.368 3.696C7.656 4.624 7.84 5.656 7.92 6.792C8.016 7.912 8.064 9.04 8.064 10.176C8.064 10.912 8.048 11.624 8.016 12.312C8 13 7.992 13.632 7.992 14.208H8.616C9.064 13.248 9.488 12.136 9.888 10.872C10.304 9.608 10.648 8.368 10.92 7.152C10.84 6.368 10.712 5.608 10.536 4.872C10.376 4.136 10.152 3.352 9.864 2.52C10.424 2.088 10.96 1.768 11.472 1.56C11.984 1.336 12.592 1.224 13.296 1.224C14.368 1.224 15.112 1.44 15.528 1.872C15.96 2.304 16.176 2.896 16.176 3.648C16.176 4.272 16.064 4.992 15.84 5.808C15.616 6.608 15.344 7.48 15.024 8.424C15.024 8.792 15.016 9.248 15 9.792C15 10.32 14.992 10.872 14.976 11.448C14.976 12.008 14.968 12.536 14.952 13.032C14.952 13.528 14.952 13.92 14.952 14.208H15.576C15.944 13.408 16.336 12.504 16.752 11.496C17.168 10.488 17.56 9.464 17.928 8.424C18.296 7.384 18.592 6.4 18.816 5.472C19.056 4.544 19.176 3.768 19.176 3.144C19.176 2.872 19.152 2.632 19.104 2.424C19.056 2.2 18.992 2.008 18.912 1.848C19.52 1.432 20.088 1.12 20.616 0.912C21.16 0.704 21.712 0.599999 22.272 0.599999C23.152 0.599999 23.768 0.855999 24.12 1.368C24.488 1.864 24.672 2.512 24.672 3.312C24.672 3.904 24.56 4.6 24.336 5.4C24.112 6.2 23.816 7.048 23.448 7.944C23.096 8.84 22.72 9.736 22.32 10.632C21.92 11.512 21.528 12.344 21.144 13.128C20.776 13.912 20.472 14.592 20.232 15.168L20.568 16.488C19.944 17.128 19.208 17.64 18.36 18.024C17.528 18.408 16.496 18.6 15.264 18.6C14.224 18.6 13.4 18.504 12.792 18.312C12.2 18.136 11.768 17.856 11.496 17.472C10.92 17.792 10.288 18.056 9.6 18.264C8.912 18.488 8.144 18.6 7.296 18.6ZM28.7899 18.624C27.7179 18.624 26.9579 18.32 26.5099 17.712C26.0779 17.088 25.8619 16.152 25.8619 14.904C25.8619 14.104 25.9899 12.904 26.2459 11.304C26.5179 9.688 26.8939 7.552 27.3739 4.896L26.1019 2.328C26.8539 1.848 27.6539 1.44 28.5019 1.104C29.3499 0.751999 30.1979 0.576 31.0459 0.576C31.5899 0.576 31.9899 0.704 32.2459 0.959999C32.5179 1.216 32.7019 1.536 32.7979 1.92C33.3579 1.904 34.0139 1.84 34.7659 1.728C35.5179 1.616 36.3099 1.472 37.1419 1.296C37.9739 1.12 38.7819 0.92 39.5659 0.696C39.6459 1 39.6939 1.28 39.7099 1.536C39.7419 1.792 39.7579 2.032 39.7579 2.256C39.7579 3.168 39.5499 3.912 39.1339 4.488C38.7179 5.064 38.1579 5.488 37.4539 5.76C36.7659 6.032 36.0059 6.168 35.1739 6.168C34.2779 6.168 33.3819 5.976 32.4859 5.592C32.3899 6.136 32.2859 6.712 32.1739 7.32C32.0619 7.912 31.9419 8.512 31.8139 9.12C32.0699 9.168 32.3179 9.208 32.5579 9.24C32.8139 9.272 33.0699 9.288 33.3259 9.288C33.6459 9.224 34.0059 9.144 34.4059 9.048C34.8219 8.936 35.1819 8.832 35.4859 8.736C35.5499 8.944 35.5819 9.16 35.5819 9.384C35.5979 9.592 35.6059 9.76 35.6059 9.888C35.6059 10.656 35.3419 11.216 34.8139 11.568C34.3019 11.92 33.6939 12.096 32.9899 12.096C32.6859 12.096 32.3979 12.08 32.1259 12.048C31.8539 12 31.5819 11.944 31.3099 11.88C31.2299 12.36 31.1659 12.816 31.1179 13.248C31.0699 13.68 31.0459 14.176 31.0459 14.736H34.9339C36.1499 14.56 37.3739 14.248 38.6059 13.8C38.6699 13.976 38.7099 14.16 38.7259 14.352C38.7419 14.544 38.7499 14.752 38.7499 14.976C38.7499 15.536 38.6379 16.096 38.4139 16.656C38.1899 17.216 37.8459 17.68 37.3819 18.048C36.9179 18.416 36.3339 18.6 35.6299 18.6C35.2619 18.6 34.8859 18.568 34.5019 18.504C34.1179 18.44 33.7179 18.368 33.3019 18.288C32.9979 18.224 32.6699 18.16 32.3179 18.096C31.9819 18.032 31.6059 17.976 31.1899 17.928C30.4219 18.392 29.6219 18.624 28.7899 18.624ZM43.6493 18.624C42.5773 18.624 41.8173 18.32 41.3693 17.712C40.9373 17.088 40.7213 16.152 40.7213 14.904C40.7213 14.104 40.8493 12.904 41.1053 11.304C41.3773 9.688 41.7533 7.552 42.2333 4.896L40.9613 2.328C41.7133 1.848 42.5133 1.44 43.3613 1.104C44.2093 0.751999 45.0573 0.576 45.9053 0.576C46.4653 0.576 46.8813 0.711999 47.1533 0.983999C47.4253 1.256 47.6013 1.6 47.6813 2.016C48.4173 1.6 49.1853 1.264 49.9853 1.008C50.8013 0.736 51.6493 0.599999 52.5293 0.599999C53.1533 0.599999 53.7773 0.704 54.4013 0.912C55.0413 1.12 55.5773 1.488 56.0093 2.016C56.4413 2.528 56.6573 3.264 56.6573 4.224C56.6573 5.328 56.3373 6.304 55.6973 7.152C55.0573 7.984 54.1213 8.656 52.8893 9.168C53.5773 9.28 54.2093 9.496 54.7853 9.816C55.3773 10.136 55.8493 10.592 56.2013 11.184C56.5533 11.776 56.7293 12.536 56.7293 13.464C56.7293 14.296 56.5373 15.032 56.1533 15.672C55.7853 16.312 55.2893 16.856 54.6653 17.304C54.0573 17.736 53.3773 18.056 52.6253 18.264C51.8893 18.488 51.1533 18.6 50.4173 18.6C49.5213 18.6 48.7533 18.504 48.1133 18.312C47.4893 18.12 46.9693 17.88 46.5533 17.592C45.6093 18.28 44.6413 18.624 43.6493 18.624ZM46.7213 8.928C47.5053 8.864 48.2573 8.712 48.9773 8.472C49.7133 8.232 50.3133 7.88 50.7773 7.416C51.2573 6.936 51.4973 6.32 51.4973 5.568C51.4973 4.368 50.8733 3.768 49.6253 3.768C49.2733 3.768 48.9293 3.8 48.5933 3.864C48.2573 3.928 47.9293 4.016 47.6093 4.128C47.5133 4.736 47.3853 5.472 47.2253 6.336C47.0653 7.184 46.8973 8.048 46.7213 8.928ZM48.4733 15.24C49.1933 15.24 49.8253 15.048 50.3693 14.664C50.9133 14.28 51.1853 13.688 51.1853 12.888C51.1853 12.12 50.9533 11.576 50.4893 11.256C50.0253 10.92 49.4653 10.752 48.8093 10.752C48.4093 10.752 47.9853 10.8 47.5373 10.896C47.1053 10.976 46.6893 11.08 46.2893 11.208C46.1773 11.848 46.0813 12.416 46.0013 12.912C45.9373 13.408 45.9053 13.792 45.9053 14.064V14.688C46.2733 14.848 46.6813 14.984 47.1293 15.096C47.5773 15.192 48.0253 15.24 48.4733 15.24ZM61.8133 18.624C60.7413 18.624 59.9813 18.32 59.5333 17.712C59.1013 17.088 58.8853 16.152 58.8853 14.904C58.8853 14.104 59.0133 12.904 59.2693 11.304C59.5413 9.688 59.9173 7.552 60.3973 4.896L59.1253 2.328C59.8773 1.848 60.6773 1.44 61.5253 1.104C62.3733 0.751999 63.2213 0.576 64.0693 0.576C64.6293 0.576 65.0453 0.711999 65.3173 0.983999C65.5893 1.256 65.7653 1.6 65.8453 2.016C66.5813 1.6 67.3493 1.264 68.1493 1.008C68.9653 0.736 69.8133 0.599999 70.6933 0.599999C71.3173 0.599999 71.9413 0.704 72.5653 0.912C73.2053 1.12 73.7413 1.488 74.1733 2.016C74.6053 2.528 74.8213 3.264 74.8213 4.224C74.8213 5.328 74.5013 6.304 73.8613 7.152C73.2213 7.984 72.2853 8.656 71.0533 9.168C71.7413 9.28 72.3733 9.496 72.9493 9.816C73.5413 10.136 74.0133 10.592 74.3653 11.184C74.7173 11.776 74.8933 12.536 74.8933 13.464C74.8933 14.296 74.7013 15.032 74.3173 15.672C73.9493 16.312 73.4533 16.856 72.8293 17.304C72.2213 17.736 71.5413 18.056 70.7893 18.264C70.0533 18.488 69.3173 18.6 68.5813 18.6C67.6853 18.6 66.9173 18.504 66.2773 18.312C65.6533 18.12 65.1333 17.88 64.7173 17.592C63.7733 18.28 62.8053 18.624 61.8133 18.624ZM64.8853 8.928C65.6693 8.864 66.4213 8.712 67.1413 8.472C67.8773 8.232 68.4773 7.88 68.9413 7.416C69.4213 6.936 69.6613 6.32 69.6613 5.568C69.6613 4.368 69.0373 3.768 67.7893 3.768C67.4373 3.768 67.0933 3.8 66.7573 3.864C66.4213 3.928 66.0933 4.016 65.7733 4.128C65.6773 4.736 65.5493 5.472 65.3893 6.336C65.2293 7.184 65.0613 8.048 64.8853 8.928ZM66.6373 15.24C67.3573 15.24 67.9893 15.048 68.5333 14.664C69.0773 14.28 69.3493 13.688 69.3493 12.888C69.3493 12.12 69.1173 11.576 68.6533 11.256C68.1893 10.92 67.6293 10.752 66.9733 10.752C66.5733 10.752 66.1493 10.8 65.7013 10.896C65.2693 10.976 64.8533 11.08 64.4533 11.208C64.3413 11.848 64.2453 12.416 64.1653 12.912C64.1013 13.408 64.0693 13.792 64.0693 14.064V14.688C64.4373 14.848 64.8453 14.984 65.2933 15.096C65.7413 15.192 66.1893 15.24 66.6373 15.24ZM79.3054 22.248C78.9214 22.248 78.5054 22.208 78.0574 22.128C77.6094 22.048 77.1854 21.904 76.7854 21.696C76.3854 21.488 76.0574 21.2 75.8014 20.832C75.5454 20.464 75.4174 19.984 75.4174 19.392C75.4174 18.976 75.5134 18.504 75.7054 17.976C75.8974 17.432 76.1934 16.888 76.5934 16.344C76.9614 16.872 77.4414 17.272 78.0334 17.544C78.6254 17.816 79.2414 17.952 79.8814 17.952C80.6174 17.952 81.3054 17.768 81.9454 17.4C82.6014 17.016 83.0654 16.44 83.3374 15.672C82.8414 15.784 82.4494 15.864 82.1614 15.912C81.8734 15.96 81.5454 15.984 81.1774 15.984C80.3934 15.984 79.7694 15.816 79.3054 15.48C78.8574 15.128 78.6014 14.528 78.5374 13.68C78.4894 12.912 78.4494 12.08 78.4174 11.184C78.3854 10.288 78.3214 9.376 78.2254 8.448C78.1454 7.52 78.0014 6.624 77.7934 5.76C77.5854 4.896 77.2894 4.12 76.9054 3.432C76.5214 2.728 76.0094 2.16 75.3694 1.728C76.0094 1.344 76.5694 1.064 77.0494 0.887999C77.5454 0.695999 78.0654 0.599999 78.6094 0.599999C79.4894 0.599999 80.2174 0.807999 80.7934 1.224C81.3854 1.624 81.8574 2.168 82.2094 2.856C82.5774 3.544 82.8494 4.32 83.0254 5.184C83.2174 6.048 83.3534 6.944 83.4334 7.872C83.5134 8.8 83.5614 9.704 83.5774 10.584C83.6094 11.464 83.6414 12.264 83.6734 12.984H84.0094C84.2974 12.296 84.5854 11.52 84.8734 10.656C85.1774 9.792 85.4494 8.912 85.6894 8.016C85.9294 7.104 86.1214 6.24 86.2654 5.424C86.4254 4.592 86.5054 3.88 86.5054 3.288C86.5054 2.936 86.4654 2.64 86.3854 2.4C86.3214 2.144 86.2414 1.92 86.1454 1.728C87.3454 0.975999 88.4574 0.599999 89.4814 0.599999C90.3614 0.599999 90.9934 0.863999 91.3774 1.392C91.7774 1.904 91.9774 2.568 91.9774 3.384C91.9774 3.864 91.8814 4.52 91.6894 5.352C91.4974 6.168 91.2334 7.096 90.8974 8.136C90.5614 9.176 90.1694 10.256 89.7214 11.376C89.2894 12.48 88.8334 13.552 88.3534 14.592C87.5534 16.288 86.7374 17.704 85.9054 18.84C85.0734 19.976 84.1294 20.824 83.0734 21.384C82.0334 21.96 80.7774 22.248 79.3054 22.248ZM98.3344 18.624C97.2624 18.624 96.5024 18.32 96.0544 17.712C95.6224 17.088 95.4064 16.152 95.4064 14.904C95.4064 14.136 95.5264 12.992 95.7664 11.472C96.0064 9.952 96.3504 7.96 96.7984 5.496C96.4304 5.544 95.9584 5.616 95.3824 5.712C94.8224 5.808 94.2544 5.912 93.6784 6.024C93.1024 6.12 92.6224 6.216 92.2384 6.312C92.1424 6.008 92.0864 5.712 92.0704 5.424C92.0544 5.136 92.0464 4.912 92.0464 4.752C92.0464 3.84 92.2064 3.096 92.5264 2.52C92.8624 1.944 93.3024 1.52 93.8464 1.248C94.3904 0.975999 94.9824 0.839999 95.6224 0.839999C96.4384 0.839999 97.2464 0.919999 98.0464 1.08C98.8464 1.224 99.6464 1.376 100.446 1.536C101.262 1.696 102.094 1.792 102.942 1.824C103.534 1.712 104.19 1.568 104.91 1.392C105.646 1.216 106.286 1.048 106.83 0.887999C106.926 1.192 106.982 1.488 106.998 1.776C107.014 2.064 107.022 2.288 107.022 2.448C107.022 3.36 106.838 4.104 106.47 4.68C106.118 5.256 105.638 5.68 105.03 5.952C104.438 6.224 103.782 6.36 103.062 6.36C102.854 6.36 102.654 6.36 102.462 6.36C102.27 6.344 102.086 6.328 101.91 6.312C101.766 7.032 101.614 7.784 101.454 8.568C101.31 9.352 101.174 10.112 101.046 10.848C100.918 11.568 100.806 12.216 100.71 12.792C100.63 13.352 100.59 13.776 100.59 14.064C100.59 14.88 100.646 15.568 100.758 16.128C100.886 16.688 101.07 17.16 101.31 17.544C100.35 18.264 99.3584 18.624 98.3344 18.624ZM110.376 18.624C109.304 18.624 108.544 18.32 108.096 17.712C107.664 17.088 107.448 16.152 107.448 14.904C107.448 14.104 107.576 12.904 107.832 11.304C108.104 9.688 108.48 7.552 108.96 4.896L107.688 2.328C108.44 1.848 109.24 1.44 110.088 1.104C110.936 0.751999 111.784 0.576 112.632 0.576C113.176 0.576 113.576 0.704 113.832 0.959999C114.104 1.216 114.288 1.536 114.384 1.92C114.944 1.904 115.6 1.84 116.352 1.728C117.104 1.616 117.896 1.472 118.728 1.296C119.56 1.12 120.368 0.92 121.152 0.696C121.232 1 121.28 1.28 121.296 1.536C121.328 1.792 121.344 2.032 121.344 2.256C121.344 3.168 121.136 3.912 120.72 4.488C120.304 5.064 119.744 5.488 119.04 5.76C118.352 6.032 117.592 6.168 116.76 6.168C115.864 6.168 114.968 5.976 114.072 5.592C113.976 6.136 113.872 6.712 113.76 7.32C113.648 7.912 113.528 8.512 113.4 9.12C113.656 9.168 113.904 9.208 114.144 9.24C114.4 9.272 114.656 9.288 114.912 9.288C115.232 9.224 115.592 9.144 115.992 9.048C116.408 8.936 116.768 8.832 117.072 8.736C117.136 8.944 117.168 9.16 117.168 9.384C117.184 9.592 117.192 9.76 117.192 9.888C117.192 10.656 116.928 11.216 116.4 11.568C115.888 11.92 115.28 12.096 114.576 12.096C114.272 12.096 113.984 12.08 113.712 12.048C113.44 12 113.168 11.944 112.896 11.88C112.816 12.36 112.752 12.816 112.704 13.248C112.656 13.68 112.632 14.176 112.632 14.736H116.52C117.736 14.56 118.96 14.248 120.192 13.8C120.256 13.976 120.296 14.16 120.312 14.352C120.328 14.544 120.336 14.752 120.336 14.976C120.336 15.536 120.224 16.096 120 16.656C119.776 17.216 119.432 17.68 118.968 18.048C118.504 18.416 117.92 18.6 117.216 18.6C116.848 18.6 116.472 18.568 116.088 18.504C115.704 18.44 115.304 18.368 114.888 18.288C114.584 18.224 114.256 18.16 113.904 18.096C113.568 18.032 113.192 17.976 112.776 17.928C112.008 18.392 111.208 18.624 110.376 18.624Z" fill="#A365FF"/>
</svg>
