<svg width="14" height="13" viewBox="0 0 14 13" fill="none" xmlns="http://www.w3.org/2000/svg">
<path fill-rule="evenodd" clip-rule="evenodd" d="M7.00009 0.229004C6.49486 0.229004 6.04325 0.390517 5.55563 0.664136C5.08324 0.929223 4.54197 1.32059 3.86133 1.81272L3.86109 1.81289L2.98082 2.44936C2.4345 2.84436 1.99816 3.15984 1.66905 3.45184C1.32923 3.75335 1.07501 4.05392 0.913753 4.432C0.752147 4.81091 0.713058 5.19927 0.73474 5.64706C0.755658 6.0792 0.835785 6.60058 0.935704 7.2507L1.11961 8.44741C1.26157 9.37129 1.37462 10.1069 1.54069 10.6801C1.71242 11.2727 1.95434 11.7432 2.38673 12.1029C2.81733 12.461 3.33028 12.6205 3.95686 12.6966C4.56641 12.7707 5.33533 12.7707 6.30657 12.7707H7.69361C8.66481 12.7707 9.43376 12.7707 10.0433 12.6966C10.6699 12.6205 11.1828 12.461 11.6134 12.1029C12.0458 11.7432 12.2877 11.2727 12.4594 10.6801C12.6255 10.1071 12.7385 9.37155 12.8805 8.44789L12.8806 8.44741L13.0645 7.25065C13.1644 6.60052 13.2445 6.0792 13.2654 5.64706C13.2871 5.19927 13.248 4.81091 13.0864 4.432C12.9252 4.05392 12.6709 3.75335 12.3311 3.45184C12.0021 3.15989 11.5658 2.84446 11.0196 2.44956L11.0194 2.44936L10.1391 1.81288L10.1382 1.81229C9.45788 1.32037 8.91679 0.929148 8.44454 0.664136C7.95693 0.390517 7.50531 0.229004 7.00009 0.229004ZM4.78979 9.05822C4.98768 8.804 5.3542 8.75833 5.60842 8.95619C5.97056 9.23812 6.4566 9.4165 7.00009 9.4165C7.54364 9.4165 8.02967 9.23812 8.39181 8.95619C8.64602 8.75833 9.01253 8.804 9.2104 9.05822C9.40832 9.31244 9.36265 9.67894 9.10843 9.87687C8.53776 10.3211 7.7985 10.5832 7.00009 10.5832C6.20168 10.5832 5.46245 10.3211 4.89179 9.87687C4.63757 9.67894 4.5919 9.31244 4.78979 9.05822Z" fill="white"/>
</svg>
