<svg width="22" height="22" viewBox="0 0 22 22" fill="none" xmlns="http://www.w3.org/2000/svg">
<path fill-rule="evenodd" clip-rule="evenodd" d="M11 0.25C5.06294 0.25 0.25 5.06294 0.25 11C0.25 16.9371 5.06294 21.75 11 21.75C16.9371 21.75 21.75 16.9371 21.75 11C21.75 5.06294 16.9371 0.25 11 0.25ZM6.29245 8.59911C7.58373 8.05275 9.0054 7.75 10.5002 7.75C12.7571 7.75 14.8493 8.44029 16.5775 9.6195C16.9196 9.853 17.3863 9.7649 17.6197 9.4227C17.8532 9.0806 17.7651 8.61394 17.4229 8.38048C15.453 7.03632 13.0676 6.25 10.5002 6.25C8.80114 6.25 7.18097 6.59442 5.70794 7.21768C5.32647 7.37908 5.14807 7.81917 5.30948 8.20064C5.47088 8.58212 5.91097 8.76051 6.29245 8.59911ZM6.73868 11.7796C7.76224 11.4363 8.85869 11.25 10.0002 11.25C11.8872 11.25 13.653 11.7592 15.1701 12.6473C15.5276 12.8565 15.987 12.7364 16.1963 12.3789C16.4055 12.0214 16.2853 11.562 15.9279 11.3527C14.1871 10.3338 12.1607 9.75 10.0002 9.75C8.69447 9.75 7.43703 9.9633 6.26171 10.3574C5.869 10.4892 5.65741 10.9143 5.78912 11.307C5.92083 11.6997 6.34596 11.9113 6.73868 11.7796ZM7.82994 15.0387C8.52115 14.8506 9.2492 14.75 10.002 14.75C11.367 14.75 12.6525 15.0809 13.7847 15.6662C14.1527 15.8565 14.6052 15.7124 14.7954 15.3444C14.9856 14.9765 14.8415 14.524 14.4736 14.3338C13.1334 13.6409 11.6122 13.25 10.002 13.25C9.115 13.25 8.25447 13.3686 7.43607 13.5913C7.0364 13.7001 6.80056 14.1123 6.90932 14.512C7.01809 14.9116 7.43026 15.1475 7.82994 15.0387Z" fill="#4CD97D"/>
</svg>
